<svg width="21" height="15" viewBox="0 0 21 15" fill="none" xmlns="http://www.w3.org/2000/svg">
<path d="M19.8582 7.06915C20.1865 7.26252 20.1865 7.73748 19.8582 7.93085L10.3132 13.5514C9.97986 13.7476 9.55947 13.5073 9.55947 13.1205L9.55947 1.87948C9.55947 1.49267 9.97987 1.25235 10.3132 1.44863L19.8582 7.06915Z" fill="url(#paint0_linear_1_979)"/>
<path d="M19.7314 7.28418C19.8751 7.36875 19.8928 7.56128 19.7852 7.67285L19.7314 7.71582L10.1865 13.3359C10.0199 13.4341 9.80957 13.3135 9.80957 13.1201L9.80957 1.87988C9.80957 1.71077 9.97028 1.59686 10.1221 1.63672L10.1865 1.66406L19.7314 7.28418Z" stroke="url(#paint1_linear_1_979)" stroke-opacity="0.3" stroke-width="0.5"/>
<path d="M13.9753 7.06915C14.3037 7.26252 14.3037 7.73748 13.9753 7.93085L4.43037 13.5514C4.09705 13.7476 3.67666 13.5073 3.67666 13.1205L3.67666 1.87948C3.67666 1.49267 4.09705 1.25235 4.43037 1.44863L13.9753 7.06915Z" fill="url(#paint2_linear_1_979)"/>
<path d="M13.8486 7.28418C13.9922 7.36875 14.01 7.56128 13.9023 7.67285L13.8486 7.71582L4.30371 13.3359C4.13705 13.4341 3.92676 13.3135 3.92676 13.1201L3.92676 1.87988C3.92676 1.71077 4.08747 1.59686 4.23926 1.63672L4.30371 1.66406L13.8486 7.28418Z" stroke="url(#paint3_linear_1_979)" stroke-opacity="0.3" stroke-width="0.5"/>
<defs>
<linearGradient id="paint0_linear_1_979" x1="18.2391" y1="6.48566" x2="8.82308" y2="6.98017" gradientUnits="userSpaceOnUse">
<stop stop-color="#08AF76"/>
<stop offset="1" stop-color="#ADFFE3" stop-opacity="0"/>
</linearGradient>
<linearGradient id="paint1_linear_1_979" x1="20.5898" y1="7.5" x2="7.3527" y2="7.01931" gradientUnits="userSpaceOnUse">
<stop stop-color="white"/>
<stop offset="1" stop-color="white" stop-opacity="0"/>
</linearGradient>
<linearGradient id="paint2_linear_1_979" x1="12.3563" y1="6.48566" x2="2.94026" y2="6.98017" gradientUnits="userSpaceOnUse">
<stop stop-color="#08AF76"/>
<stop offset="1" stop-color="#ADFFE3" stop-opacity="0"/>
</linearGradient>
<linearGradient id="paint3_linear_1_979" x1="14.707" y1="7.5" x2="1.46989" y2="7.01931" gradientUnits="userSpaceOnUse">
<stop stop-color="white"/>
<stop offset="1" stop-color="white" stop-opacity="0"/>
</linearGradient>
</defs>
</svg>
