<svg width="21" height="15" viewBox="0 0 21 15" fill="none" xmlns="http://www.w3.org/2000/svg">
<path d="M1.14184 7.06915C0.813452 7.26252 0.813453 7.73748 1.14185 7.93085L10.6868 13.5514C11.0201 13.7476 11.4405 13.5073 11.4405 13.1205L11.4405 1.87948C11.4405 1.49267 11.0201 1.25235 10.6868 1.44863L1.14184 7.06915Z" fill="url(#paint0_linear_1_982)"/>
<path d="M1.26855 7.28418C1.12494 7.36875 1.10723 7.56128 1.21484 7.67285L1.26856 7.71582L10.8135 13.3359C10.9801 13.4341 11.1904 13.3135 11.1904 13.1201L11.1904 1.87988C11.1904 1.71077 11.0297 1.59686 10.8779 1.63672L10.8135 1.66406L1.26855 7.28418Z" stroke="url(#paint1_linear_1_982)" stroke-opacity="0.3" stroke-width="0.5"/>
<path d="M7.02466 7.06915C6.69626 7.26252 6.69627 7.73748 7.02466 7.93085L16.5696 13.5514C16.9029 13.7476 17.3233 13.5073 17.3233 13.1205L17.3233 1.87948C17.3233 1.49267 16.9029 1.25235 16.5696 1.44863L7.02466 7.06915Z" fill="url(#paint2_linear_1_982)"/>
<path d="M7.15137 7.28418C7.00775 7.36875 6.99004 7.56128 7.09766 7.67285L7.15137 7.71582L16.6963 13.3359C16.8629 13.4341 17.0732 13.3135 17.0732 13.1201L17.0732 1.87988C17.0732 1.71077 16.9125 1.59686 16.7607 1.63672L16.6963 1.66406L7.15137 7.28418Z" stroke="url(#paint3_linear_1_982)" stroke-opacity="0.3" stroke-width="0.5"/>
<defs>
<linearGradient id="paint0_linear_1_982" x1="2.76089" y1="6.48566" x2="12.1769" y2="6.98017" gradientUnits="userSpaceOnUse">
<stop stop-color="#08AF76"/>
<stop offset="1" stop-color="#ADFFE3" stop-opacity="0"/>
</linearGradient>
<linearGradient id="paint1_linear_1_982" x1="0.410157" y1="7.5" x2="13.6473" y2="7.01931" gradientUnits="userSpaceOnUse">
<stop stop-color="white"/>
<stop offset="1" stop-color="white" stop-opacity="0"/>
</linearGradient>
<linearGradient id="paint2_linear_1_982" x1="8.6437" y1="6.48566" x2="18.0597" y2="6.98017" gradientUnits="userSpaceOnUse">
<stop stop-color="#08AF76"/>
<stop offset="1" stop-color="#ADFFE3" stop-opacity="0"/>
</linearGradient>
<linearGradient id="paint3_linear_1_982" x1="6.29297" y1="7.5" x2="19.5301" y2="7.01931" gradientUnits="userSpaceOnUse">
<stop stop-color="white"/>
<stop offset="1" stop-color="white" stop-opacity="0"/>
</linearGradient>
</defs>
</svg>
