<svg width="54" height="54" viewBox="0 0 54 54" fill="none" xmlns="http://www.w3.org/2000/svg">
<path d="M16.8741 15.12H19.7091V19.98C19.7052 20.5529 19.929 21.1039 20.3313 21.5117C20.7336 21.9196 21.2814 22.151 21.8543 22.1549C22.4271 22.1588 22.9781 21.935 23.386 21.5328C23.7938 21.1305 24.0252 20.5826 24.0291 20.0097V15.12H26.6913C26.975 15.1225 27.2563 15.0691 27.5194 14.9629C27.7824 14.8566 28.0219 14.6996 28.2242 14.5008C28.4265 14.3019 28.5877 14.0652 28.6986 13.8041C28.8094 13.543 28.8677 13.2626 28.8702 12.9789C28.8727 12.6953 28.8193 12.4139 28.713 12.1509C28.6068 11.8879 28.4498 11.6484 28.2509 11.4461C28.0521 11.2437 27.8154 11.0825 27.5543 10.9717C27.2932 10.8609 27.0128 10.8025 26.7291 10.8H16.8444C16.5608 10.802 16.2803 10.8598 16.019 10.9702C15.7576 11.0805 15.5206 11.2412 15.3214 11.4432C14.9191 11.8511 14.6953 12.402 14.6993 12.9749C14.7012 13.2586 14.759 13.539 14.8694 13.8004C14.9797 14.0617 15.1405 14.2987 15.3424 14.4979C15.5444 14.6971 15.7836 14.8546 16.0464 14.9613C16.3092 15.0681 16.5905 15.122 16.8741 15.12ZM28.1331 23.49H38.493C38.8964 23.4969 39.2903 23.3674 39.6108 23.1223C39.9313 22.8773 40.1597 22.5311 40.2588 22.14C40.3195 21.882 40.321 21.6136 40.2633 21.3548C40.2055 21.0961 40.09 20.8538 39.9253 20.646C39.7607 20.4383 39.5512 20.2704 39.3125 20.1551C39.0738 20.0398 38.8121 19.9799 38.547 19.98H28.0791C27.814 19.9799 27.5523 20.0398 27.3137 20.1551C27.075 20.2704 26.8655 20.4383 26.7008 20.646C26.5362 20.8538 26.4206 21.0961 26.3629 21.3548C26.3051 21.6136 26.3066 21.882 26.3673 22.14C26.466 22.5314 26.6942 22.8778 27.0149 23.1229C27.3355 23.368 27.7296 23.4974 28.1331 23.49ZM38.6091 26.7301H16.5177C16.1142 26.7227 15.7201 26.8521 15.3995 27.0972C15.0788 27.3423 14.8506 27.6887 14.7519 28.08C14.6911 28.3385 14.6897 28.6075 14.7478 28.8666C14.8058 29.1257 14.9218 29.3683 15.0871 29.5762C15.2523 29.7841 15.4625 29.9518 15.7019 30.0668C15.9413 30.1817 16.2036 30.241 16.4691 30.24H38.5524C38.9559 30.2474 39.3501 30.118 39.6707 29.8729C39.9913 29.6278 40.2195 29.2814 40.3182 28.8901C40.3788 28.6322 40.3804 28.364 40.3228 28.1055C40.2652 27.847 40.1499 27.6048 39.9856 27.3971C39.8212 27.1894 39.6121 27.0215 39.3737 26.906C39.1354 26.7905 38.874 26.7303 38.6091 26.7301ZM32.2506 41.58H16.5177C16.1123 41.5729 15.7165 41.704 15.3955 41.9519C15.0746 42.1997 14.8476 42.5495 14.7519 42.9436C14.6935 43.2011 14.6939 43.4686 14.753 43.726C14.8122 43.9834 14.9286 44.2241 15.0935 44.4304C15.2585 44.6366 15.4679 44.803 15.706 44.9172C15.9442 45.0314 16.205 45.0905 16.4691 45.09H32.202C32.6073 45.0967 33.0029 44.9654 33.3238 44.7176C33.6446 44.4699 33.8717 44.1204 33.9678 43.7266C34.0262 43.469 34.0259 43.2015 33.9667 42.9441C33.9076 42.6867 33.7912 42.446 33.6262 42.2397C33.4612 42.0335 33.2519 41.8671 33.0137 41.7529C32.7756 41.6387 32.5147 41.5796 32.2506 41.58ZM38.6091 34.29H16.5177C16.1124 34.2834 15.7168 34.4147 15.396 34.6625C15.0751 34.9102 14.848 35.2597 14.7519 35.6535C14.6935 35.9111 14.6939 36.1786 14.753 36.436C14.8122 36.6934 14.9286 36.9341 15.0935 37.1404C15.2585 37.3466 15.4679 37.513 15.706 37.6272C15.9442 37.7414 16.205 37.8005 16.4691 37.8H38.5524C38.9577 37.8067 39.3533 37.6754 39.6742 37.4276C39.995 37.1799 40.2221 36.8304 40.3182 36.4365C40.3765 36.1796 40.3763 35.9129 40.3176 35.6561C40.2589 35.3993 40.1432 35.159 39.9791 34.9529C39.815 34.7468 39.6067 34.5802 39.3696 34.4655C39.1324 34.3508 38.8725 34.2908 38.6091 34.29Z" fill="#05A76F"/>
<path d="M48.5373 12.061L36.147 1.26096C35.8291 0.972236 35.4154 0.81159 34.986 0.810059H8.33157C7.41069 0.810059 6.52752 1.17588 5.87636 1.82704C5.2252 2.47821 4.85938 3.36137 4.85938 4.28226V49.7179C4.85938 50.6387 5.2252 51.5219 5.87636 52.1731C6.52752 52.8242 7.41069 53.1901 8.33157 53.1901H45.6672C46.5881 53.1901 47.4712 52.8242 48.1224 52.1731C48.7736 51.5219 49.1394 50.6387 49.1394 49.7179V13.3813C49.1386 13.131 49.0845 12.8839 48.9807 12.6562C48.8769 12.4285 48.7257 12.2256 48.5373 12.061ZM36.4494 6.09666L43.6746 12.4201H36.4494V6.09666ZM45.6294 49.6801H8.63937V4.32006H32.9394V12.5146C32.9394 13.4204 33.2992 14.2892 33.9398 14.9297C34.5803 15.5702 35.449 15.9301 36.3549 15.9301H45.6294V49.6801Z" fill="#05A76F"/>
</svg>
