<svg width="14" height="14" viewBox="0 0 14 14" fill="none" xmlns="http://www.w3.org/2000/svg">
<path d="M7.00008 2.04163L4.66675 4.37496H9.33341L7.00008 2.04163Z" fill="white" stroke="white" stroke-linecap="round" stroke-linejoin="round"/>
<path d="M12.25 3.875C12.8481 3.87516 13.3338 4.35995 13.334 4.95801V11.375C13.334 11.9732 12.8482 12.4578 12.25 12.458H1.75C1.15184 12.4578 0.666992 11.9732 0.666992 11.375V4.95801C0.667168 4.35996 1.15195 3.87518 1.75 3.875H12.25ZM3.5 8.83301C3.22396 8.83301 3.00016 9.05701 3 9.33301C3 9.60915 3.22386 9.83301 3.5 9.83301H5.83301L5.93457 9.82324C6.1622 9.77645 6.33301 9.57448 6.33301 9.33301C6.33286 9.09165 6.16213 8.88952 5.93457 8.84277L5.83301 8.83301H3.5ZM3.5 6.5C3.22386 6.5 3 6.72386 3 7C3 7.27614 3.22386 7.5 3.5 7.5H8.75L8.85059 7.49023C9.07855 7.44371 9.25 7.24171 9.25 7C9.25 6.75829 9.07855 6.55629 8.85059 6.50977L8.75 6.5H3.5Z" fill="white"/>
</svg>
