<svg width="14" height="14" viewBox="0 0 14 14" fill="none" xmlns="http://www.w3.org/2000/svg">
<path d="M7 0.166992C8.88639 0.16708 10.5966 0.932736 11.832 2.16797L12.0586 2.40527C13.1605 3.61793 13.8339 5.23152 13.834 7C13.8339 8.88656 13.0675 10.5966 11.832 11.832C10.5966 13.0675 8.88656 13.8339 7 13.834C5.23152 13.8339 3.61793 13.1605 2.40527 12.0586L2.16797 11.832C0.932736 10.5966 0.16708 8.88639 0.166992 7C0.16708 5.11344 0.932555 3.4034 2.16797 2.16797L2.40527 1.94238C3.61799 0.840202 5.23128 0.167075 7 0.166992ZM7 9.51562C6.5973 9.51562 6.27051 9.84241 6.27051 10.2451C6.27072 10.6476 6.59743 10.9736 7 10.9736C7.40257 10.9736 7.72928 10.6476 7.72949 10.2451C7.72949 9.84241 7.4027 9.51562 7 9.51562ZM7 3.18262C5.75736 3.18262 4.75 4.18998 4.75 5.43262C4.75021 5.70858 4.97399 5.93262 5.25 5.93262C5.52601 5.93262 5.74979 5.70858 5.75 5.43262C5.75 4.74226 6.30965 4.18262 7 4.18262C7.69035 4.18262 8.25 4.74226 8.25 5.43262C8.24979 6.12279 7.69022 6.68262 7 6.68262C6.72386 6.68262 6.5 6.90648 6.5 7.18262V8.34961C6.50039 8.62542 6.7241 8.84961 7 8.84961C7.2759 8.84961 7.49961 8.62542 7.5 8.34961V7.62402C8.50156 7.39646 9.24981 6.50301 9.25 5.43262C9.25 4.18998 8.24264 3.18262 7 3.18262Z" fill="white"/>
</svg>
