<svg width="14" height="14" viewBox="0 0 14 14" fill="none" xmlns="http://www.w3.org/2000/svg">
<path d="M2.04175 10.7917C2.04175 8.54491 2.04175 3.20837 2.04175 3.20837C2.04175 2.24188 2.82525 1.45837 3.79175 1.45837H10.2084V9.04171C10.2084 9.04171 5.31792 9.04171 3.79175 9.04171C2.82925 9.04171 2.04175 9.8246 2.04175 10.7917Z" fill="white" stroke="white" stroke-linejoin="round"/>
<path d="M10.2084 9.04163C10.2084 9.04163 4.12824 9.04163 3.79175 9.04163C2.82525 9.04163 2.04175 9.82513 2.04175 10.7916C2.04175 11.7581 2.82525 12.5416 3.79175 12.5416C4.43607 12.5416 7.54719 12.5416 11.9584 12.5416V2.04163" stroke="white" stroke-linecap="round" stroke-linejoin="round"/>
<path d="M4.08325 10.7916H9.91659" stroke="white" stroke-linecap="round" stroke-linejoin="round"/>
</svg>
