<svg width="13" height="13" viewBox="0 0 13 13" fill="none" xmlns="http://www.w3.org/2000/svg">
<g id="Notes (&#231;&#172;&#148;&#232;&#174;&#176;)">
<path id="Subtract" d="M8.22461 0.0878906C8.45319 0.110752 8.66813 0.212148 8.83203 0.375977L11.541 3.08398L11.6074 3.15723C11.7531 3.33503 11.8338 3.55913 11.834 3.79102V11.375C11.8338 12.2262 11.1432 12.9159 10.292 12.916H2.70898C1.85766 12.916 1.16717 12.2263 1.16699 11.375V1.625C1.16716 0.773701 1.85765 0.0830078 2.70898 0.0830078H8.125L8.22461 0.0878906ZM4.33301 8.08301C4.05711 8.08317 3.83317 8.30711 3.83301 8.58301C3.83301 8.85905 4.05701 9.08284 4.33301 9.08301H8.66602L8.76758 9.07324C8.99523 9.02647 9.16602 8.8245 9.16602 8.58301C9.16587 8.34165 8.99514 8.13952 8.76758 8.09277L8.66602 8.08301H4.33301ZM4.33301 4.91699C4.05701 4.91716 3.83301 5.14095 3.83301 5.41699C3.83317 5.69289 4.05711 5.91683 4.33301 5.91699H8.66602L8.76758 5.90723C8.99514 5.86048 9.16587 5.65835 9.16602 5.41699C9.16602 5.1755 8.99523 4.97352 8.76758 4.92676L8.66602 4.91699H4.33301Z" fill="#05A76F"/>
</g>
</svg>
