<svg width="14" height="14" viewBox="0 0 14 14" fill="none" xmlns="http://www.w3.org/2000/svg">
<g id="Word (&#230;&#150;&#135;&#230;&#161;&#163;)">
<path id="Subtract" d="M11.375 0.75C12.4105 0.75 13.25 1.58947 13.25 2.625V11.375C13.25 12.4105 12.4105 13.25 11.375 13.25H2.625C1.58947 13.25 0.75 12.4105 0.75 11.375V2.625C0.75 1.58947 1.58947 0.75 2.625 0.75H11.375ZM10.0381 4.18164C9.77026 4.11481 9.4986 4.27807 9.43164 4.5459L8.6084 7.83398L7.4541 5.33203C7.37238 5.15516 7.19483 5.04212 7 5.04199C6.82943 5.0421 6.67233 5.12923 6.58105 5.26953L6.5459 5.33203L5.38965 7.83496L4.56836 4.5459L4.53418 4.4502C4.43371 4.24056 4.19624 4.12318 3.96191 4.18164C3.72756 4.24041 3.57278 4.45609 3.58301 4.68848L3.59766 4.78809L4.76465 9.45508L4.78906 9.5293C4.85998 9.69627 5.01844 9.81359 5.20312 9.83105C5.41409 9.8508 5.61516 9.73527 5.7041 9.54297L7 6.73535L8.2959 9.54297C8.38477 9.73537 8.58587 9.85075 8.79688 9.83105C9.00764 9.81106 9.18278 9.6604 9.23438 9.45508L10.4014 4.78809C10.4682 4.52037 10.3057 4.24876 10.0381 4.18164Z" fill="#05A76F"/>
</g>
</svg>
