<svg width="14" height="14" viewBox="0 0 14 14" fill="none" xmlns="http://www.w3.org/2000/svg">
<g id="Notes (&#231;&#172;&#148;&#232;&#174;&#176;)">
<path id="Subtract" d="M8.84863 0.171875C9.07751 0.194628 9.29297 0.295895 9.45703 0.459961L12.373 3.37695L12.4395 3.4502C12.5853 3.62814 12.666 3.85192 12.666 4.08398V12.25C12.6658 13.1243 11.9574 13.834 11.083 13.834H2.91602C2.042 13.8336 1.3332 13.1241 1.33301 12.25V1.75C1.33318 0.875923 2.04198 0.167356 2.91602 0.166992H8.75L8.84863 0.171875ZM4.66699 8.74316C4.39098 8.74316 4.16721 8.96721 4.16699 9.24316C4.16699 9.51931 4.39085 9.74316 4.66699 9.74316H9.33398L9.43457 9.7334C9.66218 9.68659 9.83398 9.48462 9.83398 9.24316C9.83379 9.00183 9.66213 8.79965 9.43457 8.75293L9.33398 8.74316H4.66699ZM4.66699 5.33301C4.39097 5.33301 4.16718 5.55703 4.16699 5.83301C4.16699 6.10915 4.39085 6.33301 4.66699 6.33301H9.33398L9.43457 6.32324C9.66218 6.27644 9.83398 6.07447 9.83398 5.83301C9.83382 5.59165 9.66214 5.3895 9.43457 5.34277L9.33398 5.33301H4.66699Z" fill="#A7CEC1"/>
</g>
</svg>
